<svg width="55" height="50" viewBox="0 0 55 50" fill="none" xmlns="http://www.w3.org/2000/svg">
<g id="Group">
<path id="$" d="M28.0884 26.9591C28.0884 27.2726 27.8342 27.5267 27.5208 27.5267C27.2073 27.5267 26.9531 27.2726 26.9531 26.9591V26.5306C25.7654 26.4591 24.8235 26.1424 24.1275 25.5805C23.6892 25.2239 23.3889 24.8014 23.2266 24.3131C23.0659 23.8299 23.4978 23.4044 24.0071 23.4044C24.4796 23.4044 24.8499 23.7918 25.1218 24.1783C25.2134 24.3085 25.3267 24.4286 25.4616 24.5384C25.8372 24.8347 26.3344 25.016 26.9531 25.0824V21.5884L26.2156 21.4122C25.2876 21.1926 24.5777 20.8324 24.086 20.3318C23.5999 19.8261 23.3568 19.2004 23.3568 18.4546C23.3568 17.5709 23.6745 16.8532 24.3098 16.3015C24.9506 15.7447 25.8317 15.4178 26.9531 15.3207V14.831C26.9531 14.5175 27.2073 14.2633 27.5208 14.2633C27.8342 14.2633 28.0884 14.5175 28.0884 14.831V15.3207C29.1601 15.4076 30.0219 15.7319 30.6737 16.2938C31.0866 16.6497 31.3742 17.0639 31.5367 17.5365C31.6961 18.0004 31.2867 18.4163 30.7961 18.4163C30.3298 18.4163 29.9689 18.0163 29.6986 17.6362C29.6229 17.5297 29.5308 17.4296 29.4225 17.3359C29.08 17.0345 28.6353 16.8532 28.0884 16.7919V20.0943L28.859 20.2552C29.8976 20.4902 30.6655 20.8554 31.1626 21.3509C31.6653 21.8464 31.9167 22.49 31.9167 23.2818C31.9167 24.2166 31.5825 24.9675 30.914 25.5345C30.2456 26.0964 29.3037 26.4259 28.0884 26.5229V26.9591ZM30.1517 23.458C30.1517 23.0187 29.9832 22.6637 29.6462 22.393C29.3148 22.1223 28.7955 21.9205 28.0884 21.7877V25.0978C28.7458 25.062 29.254 24.9011 29.6131 24.615C29.9722 24.329 30.1517 23.9433 30.1517 23.458ZM25.1301 18.3167C25.1301 18.71 25.2848 19.0395 25.5942 19.3051C25.9035 19.5707 26.3565 19.7597 26.9531 19.8721V16.7842C26.4228 16.8098 25.9864 16.9681 25.6439 17.2593C25.3014 17.5453 25.1301 17.8978 25.1301 18.3167Z" fill="#002F3E" stroke="white" stroke-width="0.3"/>
<path id="Vector" d="M13.1988 44.3073C13.6294 44.3073 13.9785 43.9579 13.9785 43.5267C13.9785 43.0955 13.6296 42.7462 13.1988 42.7462C12.7681 42.7462 12.4192 43.0957 12.4192 43.5267C12.4192 43.9577 12.7683 44.3073 13.1988 44.3073Z" fill="#002F3E" stroke="white" stroke-width="0.3"/>
<path id="Vector_2" d="M53.9744 32.0518C53.9176 31.8274 53.771 31.6364 53.5693 31.523L47.3766 28.0549C46.9909 27.8402 46.5065 27.9579 46.2638 28.3263L45.6423 29.2688C44.2797 28.0935 43.4742 26.3726 43.4742 24.5558C43.4742 23.2728 43.2687 22.0048 42.8634 20.7869L40.8732 14.8106C40.3142 13.1312 38.6316 12.1133 36.8984 12.3519C34.5364 9.9569 31.2874 8.57963 27.9207 8.57963C24.465 8.57963 21.1596 10.018 18.7824 12.5201C18.6295 12.4674 18.4798 12.4068 18.3191 12.3748C16.5081 12.0146 14.7097 13.0607 14.1267 14.8106L12.1365 20.7869C11.731 22.0048 11.5257 23.273 11.5257 24.5558C11.5257 26.3737 10.7206 28.093 9.35777 29.2691L8.73607 28.3263C8.49421 27.9579 8.00943 27.841 7.62329 28.0549L1.43075 31.523C1.22906 31.6364 1.08247 31.8272 1.02568 32.0518C0.968895 32.2764 1.00717 32.5148 1.13168 32.7097L11.2268 48.6103C11.3509 48.8061 11.5505 48.9416 11.7781 48.986C11.8307 48.9959 11.8837 49.0008 11.9367 49.0008C12.1121 49.0008 12.2845 48.9456 12.4292 48.8412L18.4356 44.5008C18.8012 44.2367 18.8937 43.7311 18.6451 43.3544L18.2417 42.7426C19.8523 41.5161 21.233 41.462 21.2884 41.4612C21.3788 41.4612 21.4686 41.4464 21.5546 41.4176C24.0507 40.5845 26.0426 39.2504 27.4965 37.4542C28.6923 38.9308 30.5467 40.4502 33.4457 41.4176C33.5271 41.4447 33.6194 41.4595 33.7048 41.4612C33.7666 41.462 35.148 41.5161 36.7586 42.7424L36.3552 43.3542C36.1066 43.7309 36.1991 44.2365 36.5647 44.5005L42.5711 48.841C42.7158 48.9454 42.8882 49.0006 43.0636 49.0006C43.1166 49.0006 43.1696 48.9957 43.2222 48.9858C43.4498 48.9414 43.6494 48.8058 43.7734 48.6101L53.8686 32.7095C53.9929 32.5148 54.031 32.2764 53.9744 32.0518ZM27.9207 10.2639C30.6478 10.2639 33.1956 11.25 35.1995 13.0489C34.8134 13.3403 34.4792 13.702 34.231 14.13C33.7039 15.0386 33.5923 16.1317 33.9241 17.1292L36.1144 23.7065L35.8807 23.9993C34.7469 25.4177 34.2951 27.1617 34.3261 28.872C34.2901 28.8872 34.2518 28.8899 34.2173 28.9107L33.6903 29.2282C31.7438 30.3964 29.6524 31.2583 27.4672 31.8337C25.3035 31.2579 23.2319 30.3821 21.3104 29.2282L20.7826 28.9107C20.7483 28.8901 20.7098 28.8874 20.674 28.872C20.7052 27.1617 20.2534 25.4179 19.1198 23.9993L18.8857 23.7065L21.0759 17.1292C21.4078 16.1317 21.2961 15.0386 20.7691 14.13C20.6215 13.8755 20.4395 13.6483 20.2397 13.4397C22.2804 11.4213 25.0391 10.2639 27.9207 10.2639ZM12.168 46.9532L3.02873 32.5583L7.76294 29.907L16.7966 43.6085L12.168 46.9532ZM21.1298 39.7839C20.6326 39.8192 19.051 40.0447 17.3123 41.3334L10.2878 30.6796C12.119 29.184 13.2084 26.9375 13.2084 24.5562C13.2084 23.4543 13.3851 22.3654 13.733 21.3201L15.7232 15.3439C16.0378 14.3974 17.0131 13.834 17.9893 14.0264C18.5458 14.1382 19.0285 14.4837 19.3137 14.9755C19.5987 15.4664 19.6593 16.0578 19.4796 16.5963L17.1447 23.6088C17.0543 23.8802 17.1077 24.1779 17.2856 24.4016L17.8057 25.0522C19.5417 27.224 19.1749 30.5432 17.9479 32.5638C17.7065 32.9611 17.8329 33.4792 18.2297 33.7209C18.3664 33.804 18.5172 33.8434 18.6659 33.8434C18.9503 33.8434 19.2275 33.6994 19.3856 33.4388C19.8721 32.6377 20.2465 31.6912 20.4641 30.6832C22.0301 31.6215 23.6889 32.387 25.4129 32.9706C25.4108 33.0213 25.3979 33.0701 25.4055 33.1221C25.4215 33.2314 25.6238 34.4643 26.4945 35.9965C25.2465 37.7148 23.4462 38.9912 21.1298 39.7839ZM33.8703 39.7839C29.2648 38.2074 27.7383 35.0832 27.266 33.6384C29.8287 33.0331 32.27 32.0407 34.5362 30.6832C34.7538 31.6912 35.1282 32.6375 35.6147 33.4386C35.7728 33.6992 36.05 33.8432 36.3344 33.8432C36.4831 33.8432 36.6339 33.8036 36.7706 33.7207C37.1674 33.479 37.2938 32.9609 37.0524 32.5636C35.8254 30.543 35.4586 27.224 37.195 25.052L37.7147 24.4014C37.8926 24.1779 37.946 23.88 37.8556 23.6086L35.5207 16.5961C35.341 16.0574 35.4016 15.4662 35.6866 14.9753C35.9716 14.4835 36.4542 14.138 37.0105 14.0262C37.9885 13.8346 38.9621 14.3971 39.2771 15.3437L41.2673 21.3199C41.6152 22.3652 41.7919 23.4541 41.7919 24.556C41.7919 26.9362 42.8817 29.1844 44.7125 30.6794L37.6882 41.3329C35.9493 40.0447 34.3675 39.819 33.8703 39.7839ZM42.8321 46.9532L38.2034 43.6085L47.2371 29.907L51.9714 32.5583L42.8321 46.9532Z" fill="#002F3E" stroke="white" stroke-width="0.3"/>
<path id="Vector_3" d="M41.8017 42.7462C41.3712 42.7462 41.0221 43.0957 41.0221 43.5267C41.0221 43.9577 41.371 44.3073 41.8017 44.3073C42.2325 44.3073 42.5814 43.9579 42.5814 43.5267C42.5814 43.0955 42.2323 42.7462 41.8017 42.7462Z" fill="#002F3E" stroke="white" stroke-width="0.3"/>
<path id="Vector_4" d="M27.9206 6.89541C28.3852 6.89541 28.7619 6.51873 28.7619 6.0532V1.8422C28.7619 1.37667 28.3852 1 27.9206 1C27.456 1 27.0793 1.37667 27.0793 1.8422V6.0532C27.0793 6.51873 27.456 6.89541 27.9206 6.89541Z" fill="#002F3E" stroke="white" stroke-width="0.3"/>
<path id="Vector_5" d="M31.2849 7.73825C31.5569 7.73825 31.8235 7.60665 31.9857 7.36326L33.6682 4.83665C33.9259 4.44924 33.8215 3.92707 33.435 3.66872C33.048 3.41122 32.526 3.51502 32.2684 3.90222L30.5858 6.42883C30.3282 6.81625 30.4325 7.33841 30.8191 7.59676C30.9625 7.69214 31.1247 7.73825 31.2849 7.73825Z" fill="#002F3E" stroke="white" stroke-width="0.3"/>
<path id="Vector_6" d="M23.8557 7.36231C24.0178 7.6057 24.2845 7.7373 24.5565 7.7373C24.7167 7.7373 24.8789 7.69119 25.0223 7.59581C25.4089 7.33746 25.5132 6.81529 25.2556 6.42788L23.573 3.90127C23.3145 3.51386 22.7921 3.41027 22.4064 3.66777C22.0198 3.92612 21.9155 4.44828 22.1732 4.8357L23.8557 7.36231Z" fill="#002F3E" stroke="white" stroke-width="0.3"/>
</g>
</svg>
