<svg width="48" height="48" viewBox="0 0 48 48" fill="none" xmlns="http://www.w3.org/2000/svg">
<g id="invite 1" clip-path="url(#clip0_4020_7123)">
<g id="Group">
<g id="Group_2">
<path id="Vector" d="M34.338 10.2401H13.6618C13.2735 10.2401 12.9587 10.5549 12.9587 10.9432C12.9587 11.3315 13.2736 11.6462 13.6618 11.6462H34.338C34.7263 11.6462 35.041 11.3315 35.041 10.9432C35.041 10.5549 34.7263 10.2401 34.338 10.2401Z" fill="#002F3E"/>
</g>
</g>
<g id="Group_3">
<g id="Group_4">
<path id="Vector_2" d="M34.338 13.889H13.6618C13.2735 13.889 12.9587 14.2037 12.9587 14.592C12.9587 14.9804 13.2736 15.2951 13.6618 15.2951H34.338C34.7263 15.2951 35.041 14.9804 35.041 14.592C35.041 14.2037 34.7263 13.889 34.338 13.889Z" fill="#002F3E"/>
</g>
</g>
<g id="Group_5">
<g id="Group_6">
<path id="Vector_3" d="M23.3633 17.5377H13.6618C13.2735 17.5377 12.9587 17.8524 12.9587 18.2407C12.9587 18.6291 13.2736 18.9437 13.6618 18.9437H23.3632C23.7514 18.9437 24.0663 18.629 24.0663 18.2407C24.0664 17.8523 23.7515 17.5377 23.3633 17.5377Z" fill="#002F3E"/>
</g>
</g>
<g id="Group_7">
<g id="Group_8">
<path id="Vector_4" d="M45.6167 13.7636L41.5898 11.0217V9.98814C41.5898 7.47873 39.5482 5.43714 37.0388 5.43714H33.3876L26.5748 0.798752C25.0107 -0.266251 22.9893 -0.266251 21.4251 0.798752L14.6183 5.4332L14.621 5.43723H10.9611C8.45166 5.43723 6.41006 7.47883 6.41006 9.98824V11.0217L2.38321 13.7635C1.29242 14.5061 0.641235 15.7374 0.641235 17.057V45.0129C0.641235 45.9864 1.03377 47.9999 3.62821 47.9999H44.3717C46.0188 47.9999 47.3586 46.6599 47.3586 45.0129V17.057C47.3587 15.7374 46.7074 14.5062 45.6167 13.7636ZM22.2164 1.96088C23.3 1.22344 24.7002 1.22344 25.7834 1.96088L30.8894 5.43723H17.1107L22.2164 1.96088ZM7.81622 9.98833C7.81622 8.25414 9.22697 6.84339 10.9611 6.84339H37.0387C38.7728 6.84339 40.1836 8.25414 40.1836 9.98824V15.3086C40.1836 15.697 40.4984 16.0116 40.8866 16.0116C41.2748 16.0116 41.5896 15.6969 41.5896 15.3086V12.7229C41.5896 12.7229 45.0629 15.1043 45.1683 15.2063L27.7428 25.7528C25.4342 27.1468 22.5658 27.147 20.2607 25.755L7.81622 18.1365V9.98833ZM6.41015 12.7227V17.2755L2.90999 15.1329C2.99315 15.0589 6.41015 12.7227 6.41015 12.7227ZM3.5444 46.5897L6.03768 43.7268C6.29268 43.4339 6.26212 42.9899 5.96925 42.7348C5.67646 42.4798 5.23237 42.5106 4.97728 42.8032L2.30361 45.8732C2.14208 45.6253 2.04721 45.3302 2.04721 45.0128V17.057C2.04721 16.8039 2.08508 16.5561 2.15558 16.3197L19.04 26.6563L7.08253 40.3861C6.82753 40.679 6.85809 41.123 7.15097 41.3781C7.28419 41.494 7.74356 41.6841 8.14294 41.3096L20.2883 27.3641C21.464 27.9244 22.7317 28.205 23.9998 28.205C25.2838 28.205 26.5679 27.9167 27.7562 27.3421L44.4771 46.5887C44.4421 46.5909 3.57234 46.5912 3.5444 46.5897ZM45.9526 45.0129C45.9526 45.324 45.861 45.6134 45.7053 45.8583L29.0032 26.6335L45.8734 16.4231C45.9253 16.628 45.9527 16.8405 45.9527 17.057V45.0129H45.9526Z" fill="#002F3E"/>
</g>
</g>
</g>
<defs>
<clipPath id="clip0_4020_7123">
<rect width="48" height="48" fill="white"/>
</clipPath>
</defs>
</svg>
