<svg width="50" height="45" viewBox="0 0 50 45" fill="none" xmlns="http://www.w3.org/2000/svg">
<g id="Page 1">
<g id="087   Money Percentage">
<path id="Shape" d="M36.1987 18.5192C33.0094 18.5217 29.937 19.7151 27.5891 21.8635C26.3708 20.8179 24.6412 20.6018 23.201 21.3152C21.7608 22.0287 20.8912 23.5324 20.9946 25.1303C21.0981 26.7282 22.1545 28.1083 23.6748 28.6319C22.5569 33.9108 24.9006 39.3182 29.5256 42.1311C34.1507 44.944 40.0543 44.5524 44.2635 41.1536C48.4727 37.7548 50.0748 32.0857 48.2632 27.0011C46.4515 21.9165 41.6188 18.5188 36.1987 18.5192ZM22.5988 24.8894C22.5944 23.9771 23.1149 23.1427 23.9383 22.742C24.7617 22.3413 25.7429 22.4449 26.4635 23.0086C25.4315 24.2144 24.6347 25.6014 24.114 27.0982C23.2004 26.7424 22.5991 25.8658 22.5988 24.8894ZM36.1987 42.4074C30.0131 42.4074 24.9988 37.4163 24.9988 31.2596C24.9988 25.1028 30.0131 20.1117 36.1987 20.1117C42.3842 20.1117 47.3986 25.1028 47.3986 31.2596C47.392 37.4136 42.3815 42.4008 36.1987 42.4074Z" fill="#002F3E" stroke="white" stroke-width="0.2"/>
<path id="Shape_2" d="M43.5641 18.9236C43.8946 19.215 44.3999 19.1847 44.6929 18.8559C48.1751 14.9291 48.3053 9.07527 45.0012 4.99881C41.6971 0.922341 35.9214 -0.188887 31.329 2.3683C31.0749 2.50467 30.9144 2.76664 30.9089 3.05385C30.9033 3.34106 31.0536 3.60898 31.3022 3.75495C31.5508 3.90092 31.8591 3.90231 32.109 3.7586C36.0211 1.57269 40.947 2.51625 43.7646 5.99123C46.5822 9.46622 46.4687 14.4579 43.4961 17.8025C43.205 18.1312 43.2354 18.6322 43.5641 18.9236Z" fill="#002F3E" stroke="white" stroke-width="0.2"/>
<path id="Shape_3" d="M39.3986 27.6762C39.3986 28.116 39.7568 28.4725 40.1986 28.4725C40.6404 28.4725 40.9986 28.116 40.9986 27.6762C40.9144 25.4541 39.2172 23.624 36.9986 23.3628V23.2967C36.9986 22.8569 36.6405 22.5004 36.1986 22.5004C35.7568 22.5004 35.3987 22.8569 35.3987 23.2967V23.3628C33.1801 23.624 31.4829 25.4541 31.3987 27.6762C31.4829 29.8983 33.1801 31.7284 35.3987 31.9896V37.5309C34.0663 37.3023 33.0702 36.1865 32.9987 34.8427C32.9987 34.4029 32.6405 34.0464 32.1987 34.0464C31.7569 34.0464 31.3987 34.4029 31.3987 34.8427C31.4829 37.0647 33.1801 38.8949 35.3987 39.1561V39.2222C35.3987 39.6619 35.7568 40.0184 36.1986 40.0184C36.6405 40.0184 36.9986 39.6619 36.9986 39.2222V39.1561C39.2592 38.9777 41.0022 37.0997 41.0022 34.8427C41.0022 32.5856 39.2592 30.7076 36.9986 30.5292V24.988C38.331 25.2166 39.3271 26.3324 39.3986 27.6762ZM32.9987 27.6762C33.0702 26.3324 34.0663 25.2166 35.3987 24.988V30.3644C34.0663 30.1358 33.0702 29.02 32.9987 27.6762ZM39.3986 34.8427C39.3271 36.1865 38.331 37.3023 36.9986 37.5309V32.1544C38.331 32.383 39.3271 33.4988 39.3986 34.8427Z" fill="#002F3E" stroke="white" stroke-width="0.2"/>
<path id="Shape_4" d="M19.7986 39.2223C20.8111 39.223 21.8221 39.1431 22.8218 38.9835C23.1094 38.9442 23.3531 38.753 23.4585 38.4838C23.5639 38.2146 23.5146 37.9096 23.3296 37.687C23.1445 37.4644 22.8528 37.359 22.5674 37.4116C21.6517 37.5571 20.7259 37.6301 19.7986 37.6298C13.153 37.6293 7.10221 33.8181 4.25665 27.8404C1.41109 21.8626 2.27992 14.7881 6.48833 9.66866C6.76656 9.32877 6.71641 8.82896 6.37614 8.55056C6.03587 8.27216 5.53351 8.31991 5.25234 8.65739C0.650946 14.2527 -0.299911 21.986 2.81003 28.5207C5.91997 35.0554 12.5341 39.2218 19.7986 39.2223Z" fill="#002F3E" stroke="white" stroke-width="0.2"/>
<path id="Shape_5" d="M36.4855 16.3617C36.5738 16.717 36.8939 16.9666 37.2615 16.9669C37.3265 16.9667 37.3912 16.9589 37.4543 16.9438C37.8831 16.838 38.1445 16.4063 38.0383 15.9795C35.9507 7.6447 28.4285 1.79615 19.7985 1.79788C15.7287 1.78517 11.7667 3.09968 8.51853 5.54037C8.16507 5.80423 8.09344 6.30334 8.35853 6.65515C8.62363 7.00697 9.12507 7.07827 9.47853 6.81441C15.0842 2.63199 22.6779 2.25029 28.6784 5.84932C32.5684 8.19516 35.3734 11.972 36.4855 16.3617Z" fill="#002F3E" stroke="white" stroke-width="0.2"/>
<path id="Shape_6" d="M11.6327 28.6373C11.9451 28.9482 12.4515 28.9482 12.7639 28.6373L28.7638 12.7118C29.0669 12.3994 29.0626 11.9027 28.754 11.5956C28.4454 11.2884 27.9465 11.2841 27.6326 11.5859L11.6327 27.5114C11.3204 27.8223 11.3204 28.3264 11.6327 28.6373Z" fill="#002F3E" stroke="white" stroke-width="0.2"/>
<path id="Shape_7" d="M15.3986 19.3155C17.6078 19.3155 19.3986 17.533 19.3986 15.3342C19.3986 13.1353 17.6078 11.3528 15.3986 11.3528C13.1895 11.3528 11.3987 13.1353 11.3987 15.3342C11.4013 17.5319 13.1906 19.3129 15.3986 19.3155ZM15.3986 12.9454C16.7241 12.9454 17.7986 14.0149 17.7986 15.3342C17.7986 16.6535 16.7241 17.723 15.3986 17.723C14.0732 17.723 12.9987 16.6535 12.9987 15.3342C12.9987 14.0149 14.0732 12.9454 15.3986 12.9454Z" fill="#002F3E" stroke="white" stroke-width="0.2"/>
</g>
</g>
</svg>
