<svg width="47" height="49" viewBox="0 0 47 49" fill="none" xmlns="http://www.w3.org/2000/svg">
<g id="Group 506">
<g id="Group">
<path id="Vector" d="M45.3 48.2C45.1 48.2 44.8 48.1 44.7 47.9L32.4 33.3C32 32.9 32 32.3 32.4 31.9C32.8 31.5 33.3 31.5 33.7 31.9L46 46.5C46.4 46.9 46.4 47.5 46 47.9C45.8 48.1 45.5 48.2 45.3 48.2Z" fill="#002F3E"/>
<path id="Vector_2" d="M45.3 48.5C45 48.5 44.7 48.4 44.5 48.1L32.2 33.4C31.8 32.9 31.8 32.1 32.2 31.6C32.6 31.1 33.4 31.1 33.9 31.6L46.2 46.2C46.6 46.7 46.6 47.5 46.2 48C45.9 48.3 45.6 48.5 45.3 48.5ZM33 31.8C32.8 31.8 32.7 31.9 32.5 32C32.2 32.3 32.2 32.8 32.5 33.1L44.8 47.7C45 48 45.5 48 45.7 47.7C46 47.4 46 46.9 45.7 46.6L33.5 32C33.3 31.9 33.2 31.8 33 31.8Z" fill="white"/>
</g>
<path id="Vector_3" d="M19.4 29.2C19.3 29.2 19.4 29.2 19.4 29.2C16.7 29.1 12.5 24.5 10.5 21.8V21.9H10.1C8.50002 22.1 6.00002 20.3 5.70002 19.9L5.40002 19.6L5.50002 19.2C5.80002 18.3 7.50002 15.6 7.60002 15.3C7.80002 15 8.20002 14.9 8.60002 15.1C8.90002 15.3 9.00003 15.7 8.80002 16.1C8.20003 17 7.40002 18.5 7.00002 19.3C7.60002 19.7 8.70002 20.4 9.50002 20.6L9.70002 20.2L12.6 13.5C12.1 13 10.7 12.3 10 12.2L9.60002 13C9.50002 13.2 9.10002 13.3 8.70002 13.2C8.40002 13 8.20002 12.6 8.40002 12.2L9.10002 10.8L9.40002 10.7C10.4 10.3 12.9 11.5 13.8 12.6C15.5 12.2 17 12.3 18.5 12.5C19.1 12.1 19.7 11.9 20.1 11.8C21.9 11.5 24.7 13.2 25.9 13.9C26.5 13.4 27.7 12.5 29.7 12.2C29.8 12.2 30.1 12.2 30.4 12.4C31.4 13.2 33.9 20.4 33.9 21V21.2L33.7 21.4C32 22.8 29.6 23.2 29.5 23.2H29.1C28.7 23.7 28.2 24.1 27.7 24.4C27.7 25.1 27.5 25.6 27 25.9C26.6 26.2 26.2 26.3 25.9 26.3C25.9 27.2 25.4 27.6 25.2 27.8C24.7 28.1 24 28.1 23.4 28C23.2 28.6 22.8 28.9 22.4 29.1C21.8 29.3 21.2 29.2 20.6 28.9C20.2 29.1 19.8 29.2 19.4 29.2ZM11.2 20.2C13 22.9 17.4 27.7 19.4 27.8L16.8 25.2C16.5 24.9 16.5 24.5 16.8 24.2C17.1 23.9 17.5 23.9 17.8 24.2L20.9 27.4C21.2 27.7 21.6 27.8 21.8 27.7C21.9 27.7 22 27.5 22.1 27.1L18.9 23.7C18.6 23.4 18.7 23 18.9 22.7C19.2 22.4 19.6 22.5 19.9 22.7L23.3 26.4C23.5 26.6 24.1 26.7 24.3 26.6C24.4 26.5 24.4 26.2 24.3 25.8L20.3 21.7C20 21.4 20 21 20.3 20.7C20.6 20.4 21 20.4 21.3 20.7L25.3 24.8C25.6 24.9 25.9 24.9 26.1 24.8C26.2 24.7 26.2 24.6 26.2 24.2L20 17.8C19.9 17.9 19.8 18 19.7 18.1C18.7 19 16.9 20.6 15.2 19C14.8 18.6 14.6 18.1 14.6 17.4C14.7 16.2 15.6 14.8 16.8 13.6C15.9 13.6 14.9 13.6 13.9 13.9H13.8L11.2 20.2ZM20.3 16L27.2 23.1C27.6 22.9 28.1 22.3 28.4 21.8L27 18.7C26.8 18.3 27 17.9 27.4 17.8C27.8 17.6 28.2 17.8 28.3 18.2L29.8 21.6V21.7C30.4 21.6 31.5 21.2 32.4 20.6C32 19.3 30.2 14.7 29.6 13.6C28.1 13.9 27.2 14.5 26.9 14.9L27.4 15.9C27.6 16.2 27.4 16.7 27.1 16.8C26.8 17 26.3 16.8 26.2 16.5L25.4 15.2C23.7 14 21.3 12.9 20.3 13.1C20 13.1 19.5 13.4 19.1 13.7C17.6 14.8 16.3 16.6 16.2 17.6C16.2 17.9 16.3 18 16.3 18.1C16.9 18.7 17.6 18.3 18.9 17.2C19.2 16.9 19.5 16.6 19.9 16.4L20.3 16Z" fill="#002F3E"/>
<g id="Group_2">
<path id="Vector_4" d="M19.2 38.6C8.69995 38.6 0.199951 30 0.199951 19.4C0.199951 8.8 8.69995 0.199997 19.2 0.199997C29.7 0.199997 38.2 8.8 38.2 19.4C38.2 30 29.6 38.6 19.2 38.6ZM19.2 2.2C9.79995 2.2 2.19995 9.9 2.19995 19.4C2.19995 28.9 9.79995 36.6 19.2 36.6C28.6 36.6 36.2 28.9 36.2 19.4C36.2 9.9 28.5 2.2 19.2 2.2Z" fill="#002F3E"/>
<path id="Vector_5" d="M19.2 38.9C8.6 38.9 0 30.2 0 19.4C0 8.7 8.6 0 19.2 0C29.8 0 38.4 8.7 38.4 19.5C38.4 30.1 29.8 38.9 19.2 38.9ZM19.2 0.5C8.9 0.5 0.5 9 0.5 19.5C0.5 30 8.9 38.5 19.2 38.5C29.5 38.5 37.9 30 37.9 19.5C37.9 9 29.5 0.5 19.2 0.5ZM19.2 36.8C9.7 36.8 2 29 2 19.4C2 9.8 9.7 2 19.2 2C28.7 2 36.4 9.8 36.4 19.4C36.4 29 28.7 36.8 19.2 36.8ZM19.2 2.5C10 2.5 2.5 10.1 2.5 19.4C2.5 28.7 10 36.3 19.2 36.3C28.4 36.3 35.9 28.7 35.9 19.4C35.9 10.1 28.4 2.5 19.2 2.5Z" fill="white"/>
</g>
</g>
</svg>
