<svg width="137" height="234" viewBox="0 0 137 234" fill="none" xmlns="http://www.w3.org/2000/svg">
<g id="Group 461" opacity="0.15">
<g id="Rectangle 31" opacity="0.2">
<rect x="31.9998" y="148" width="128" height="128" rx="14" transform="rotate(-65.0708 31.9998 148)" fill="url(#paint0_linear_4020_5523)"/>
<rect x="31.9998" y="148" width="128" height="128" rx="14" transform="rotate(-65.0708 31.9998 148)" fill="url(#paint1_linear_4020_5523)"/>
<rect x="31.9998" y="148" width="128" height="128" rx="14" transform="rotate(-65.0708 31.9998 148)" fill="url(#paint2_linear_4020_5523)"/>
<rect x="31.9998" y="148" width="128" height="128" rx="14" transform="rotate(-65.0708 31.9998 148)" fill="url(#paint3_linear_4020_5523)"/>
<rect x="31.9998" y="148" width="128" height="128" rx="14" transform="rotate(-65.0708 31.9998 148)" fill="url(#paint4_linear_4020_5523)"/>
</g>
<rect id="Rectangle 32" opacity="0.2" width="91" height="91" rx="10" transform="matrix(0.906829 0.421498 0.421498 -0.906829 56.9999 139)" fill="url(#paint5_linear_4020_5523)"/>
</g>
<defs>
<linearGradient id="paint0_linear_4020_5523" x1="41.8169" y1="156.419" x2="150.195" y2="268.886" gradientUnits="userSpaceOnUse">
<stop stop-color="#002F3E"/>
<stop offset="1" stop-color="#00E6B0"/>
</linearGradient>
<linearGradient id="paint1_linear_4020_5523" x1="41.8169" y1="156.419" x2="150.195" y2="268.886" gradientUnits="userSpaceOnUse">
<stop stop-color="#002F3E"/>
<stop offset="1" stop-color="#00E6B0"/>
</linearGradient>
<linearGradient id="paint2_linear_4020_5523" x1="41.8169" y1="156.419" x2="150.195" y2="268.886" gradientUnits="userSpaceOnUse">
<stop stop-color="#002F3E"/>
<stop offset="1" stop-color="#00E6B0"/>
</linearGradient>
<linearGradient id="paint3_linear_4020_5523" x1="41.8169" y1="156.419" x2="150.195" y2="268.886" gradientUnits="userSpaceOnUse">
<stop stop-color="#002F3E"/>
<stop offset="1" stop-color="#00E6B0"/>
</linearGradient>
<linearGradient id="paint4_linear_4020_5523" x1="41.8169" y1="156.419" x2="150.195" y2="268.886" gradientUnits="userSpaceOnUse">
<stop stop-color="#002F3E"/>
<stop offset="1" stop-color="#00E6B0"/>
</linearGradient>
<linearGradient id="paint5_linear_4020_5523" x1="6.97933" y1="5.98522" x2="84.0295" y2="85.9421" gradientUnits="userSpaceOnUse">
<stop stop-color="#002F3E"/>
<stop offset="1" stop-color="#00E6B0"/>
</linearGradient>
</defs>
</svg>
