<svg width="155" height="188" viewBox="0 0 155 188" fill="none" xmlns="http://www.w3.org/2000/svg">
<g id="Group 446" opacity="0.04">
<path id="Rectangle 30" d="M28.165 50.6033C33.7269 56.2218 33.681 65.2854 28.0625 70.8472L-6.47774 105.039C-12.0963 110.601 -21.1598 110.555 -26.7217 104.937L-60.9139 70.3967C-66.4758 64.7782 -66.4299 55.7146 -60.8114 50.1528L-26.2711 15.9605C-20.6526 10.3986 -11.5891 10.4445 -6.02717 16.0631L28.165 50.6033Z" fill="url(#paint0_linear_4020_5567)"/>
<rect id="Rectangle 33" x="127" y="34" width="37" height="37" rx="5" transform="rotate(41.2347 127 34)" fill="#00D6C5"/>
<rect id="Rectangle 34" x="111" y="114" width="52" height="52" rx="5" transform="rotate(41.2347 111 114)" fill="#00D6C5"/>
<path id="Rectangle 31" d="M-64.4914 69.5489C-69.2733 64.8023 -69.3019 57.0779 -64.5553 52.2961L-35.3751 22.8991C-30.6285 18.1172 -22.9041 18.0886 -18.1223 22.8352L11.2747 52.0154C16.0566 56.762 16.0852 64.4864 11.3386 69.2682L-17.8416 98.6652C-22.5882 103.447 -30.3126 103.476 -35.0945 98.7291L-64.4914 69.5489Z" fill="url(#paint1_linear_4020_5567)"/>
</g>
<defs>
<linearGradient id="paint0_linear_4020_5567" x1="-62.2224" y1="54.1134" x2="-10.228" y2="70.7553" gradientUnits="userSpaceOnUse">
<stop stop-color="#002F3E"/>
<stop offset="1" stop-color="#00E6B0"/>
</linearGradient>
<linearGradient id="paint1_linear_4020_5567" x1="12.5115" y1="65.8824" x2="-31.923" y2="52.0884" gradientUnits="userSpaceOnUse">
<stop stop-color="#002F3E"/>
<stop offset="1" stop-color="#00E6B0"/>
</linearGradient>
</defs>
</svg>
