<svg width="81" height="156" viewBox="0 0 81 156" fill="none" xmlns="http://www.w3.org/2000/svg">
<g opacity="0.04">
<path d="M43.8305 43.2543C40.3923 39.8415 40.3718 34.2876 43.7846 30.8494L64.7654 9.71268C68.1783 6.27447 73.7322 6.25391 77.1704 9.66676L98.307 30.6476C101.745 34.0604 101.766 39.6143 98.353 43.0525L77.3722 64.1892C73.9593 67.6274 68.4054 67.6479 64.9672 64.2351L43.8305 43.2543Z" fill="url(#paint0_linear_4020_5564)"/>
<path d="M6.79464 134.507C4.38939 132.12 4.375 128.234 6.76251 125.829L21.4399 111.043C23.8274 108.637 27.7127 108.623 30.118 111.011L44.9044 125.688C47.3097 128.075 47.324 131.961 44.9365 134.366L30.2591 149.152C27.8716 151.558 23.9863 151.572 21.5811 149.185L6.79464 134.507Z" fill="#58D4B7"/>
</g>
<defs>
<linearGradient id="paint0_linear_4020_5564" x1="99.1963" y1="40.6181" x2="67.2475" y2="30.7" gradientUnits="userSpaceOnUse">
<stop stop-color="#002F3E"/>
<stop offset="1" stop-color="#00E6B0"/>
</linearGradient>
</defs>
</svg>
