<svg width="143" height="249" viewBox="0 0 143 249" fill="none" xmlns="http://www.w3.org/2000/svg">
<g id="Group 470" opacity="0.15">
<g id="Rectangle 31" opacity="0.2">
<rect x="170.321" y="201.852" width="128" height="128" rx="14" transform="rotate(-165.728 170.321 201.852)" fill="url(#paint0_linear_4020_5487)"/>
<rect x="170.321" y="201.852" width="128" height="128" rx="14" transform="rotate(-165.728 170.321 201.852)" fill="url(#paint1_linear_4020_5487)"/>
<rect x="170.321" y="201.852" width="128" height="128" rx="14" transform="rotate(-165.728 170.321 201.852)" fill="url(#paint2_linear_4020_5487)"/>
<rect x="170.321" y="201.852" width="128" height="128" rx="14" transform="rotate(-165.728 170.321 201.852)" fill="url(#paint3_linear_4020_5487)"/>
<rect x="170.321" y="201.852" width="128" height="128" rx="14" transform="rotate(-165.728 170.321 201.852)" fill="url(#paint4_linear_4020_5487)"/>
</g>
<rect id="Rectangle 32" opacity="0.2" width="91" height="91" rx="10" transform="matrix(0.246528 -0.969136 -0.969136 -0.246528 156.853 178.947)" fill="url(#paint5_linear_4020_5487)"/>
</g>
<defs>
<linearGradient id="paint0_linear_4020_5487" x1="180.138" y1="210.271" x2="288.516" y2="322.738" gradientUnits="userSpaceOnUse">
<stop stop-color="#002F3E"/>
<stop offset="1" stop-color="#00E6B0"/>
</linearGradient>
<linearGradient id="paint1_linear_4020_5487" x1="180.138" y1="210.271" x2="288.516" y2="322.738" gradientUnits="userSpaceOnUse">
<stop stop-color="#002F3E"/>
<stop offset="1" stop-color="#00E6B0"/>
</linearGradient>
<linearGradient id="paint2_linear_4020_5487" x1="180.138" y1="210.271" x2="288.516" y2="322.738" gradientUnits="userSpaceOnUse">
<stop stop-color="#002F3E"/>
<stop offset="1" stop-color="#00E6B0"/>
</linearGradient>
<linearGradient id="paint3_linear_4020_5487" x1="180.138" y1="210.271" x2="288.516" y2="322.738" gradientUnits="userSpaceOnUse">
<stop stop-color="#002F3E"/>
<stop offset="1" stop-color="#00E6B0"/>
</linearGradient>
<linearGradient id="paint4_linear_4020_5487" x1="180.138" y1="210.271" x2="288.516" y2="322.738" gradientUnits="userSpaceOnUse">
<stop stop-color="#002F3E"/>
<stop offset="1" stop-color="#00E6B0"/>
</linearGradient>
<linearGradient id="paint5_linear_4020_5487" x1="6.97933" y1="5.98522" x2="84.0295" y2="85.9421" gradientUnits="userSpaceOnUse">
<stop stop-color="#002F3E"/>
<stop offset="1" stop-color="#00E6B0"/>
</linearGradient>
</defs>
</svg>
