<svg width="48" height="48" viewBox="0 0 48 48" fill="none" xmlns="http://www.w3.org/2000/svg">
<g id="percent 1" clip-path="url(#clip0_4020_7165)">
<g id="Group">
<path id="Vector" d="M6.23253 18.5174C5.89215 18.2783 5.42187 18.3599 5.18232 18.7007C4.10561 20.2326 3.53635 22.0331 3.53635 23.908C3.53635 24.3242 3.87378 24.6616 4.28997 24.6616C4.70615 24.6616 5.04359 24.3242 5.04359 23.908C5.04359 22.3452 5.51791 20.8442 6.41578 19.5673C6.65497 19.2269 6.57291 18.757 6.23253 18.5174Z" fill="#002F3E" stroke="white" stroke-width="0.2"/>
<path id="Shape" d="M15.6641 21.4318C15.6641 21.8084 15.9625 22.1136 16.3306 22.1136C16.6986 22.1136 16.997 21.8084 16.997 21.4318C16.9268 19.5292 15.513 17.962 13.6649 17.7384V17.6818C13.6649 17.3053 13.3665 17 12.9985 17C12.6304 17 12.3321 17.3053 12.3321 17.6818V17.7384C10.4839 17.962 9.07013 19.5292 8.99997 21.4318C9.07013 23.3345 10.4839 24.9016 12.3321 25.1252V29.87C11.2222 29.6743 10.3923 28.7189 10.3328 27.5682C10.3328 27.1916 10.0344 26.8864 9.66639 26.8864C9.29833 26.8864 8.99997 27.1916 8.99997 27.5682C9.07013 29.4708 10.4839 31.038 12.3321 31.2616V31.3182C12.3321 31.6947 12.6304 32 12.9985 32C13.3665 32 13.6649 31.6947 13.6649 31.3182V31.2616C15.548 31.1088 17 29.5008 17 27.5682C17 25.6355 15.548 24.0275 13.6649 23.8748V19.13C14.7748 19.3257 15.6046 20.2811 15.6641 21.4318ZM10.3328 21.4318C10.3923 20.2811 11.2222 19.3257 12.3321 19.13V23.7336C11.2222 23.5379 10.3923 22.5825 10.3328 21.4318ZM15.6641 27.5682C15.6046 28.7189 14.7748 29.6743 13.6649 29.87V25.2664C14.7748 25.4621 15.6046 26.4175 15.6641 27.5682Z" fill="#002F3E" stroke="white" stroke-width="0.2"/>
<path id="Vector_2" d="M8.8275 17.3561C9.18738 17.1475 9.31029 16.6864 9.10164 16.3261C8.89263 15.9662 8.43155 15.8433 8.0713 16.052C7.82181 16.197 7.576 16.3556 7.34049 16.5241C7.00232 16.7662 6.92431 17.2369 7.16644 17.5754C7.31363 17.7811 7.54509 17.8904 7.77986 17.8904C7.93184 17.8904 8.08528 17.8448 8.21812 17.7498C8.41426 17.6093 8.61922 17.4768 8.8275 17.3561Z" fill="#002F3E" stroke="white" stroke-width="0.2"/>
<path id="Vector_3" d="M34.6504 14.5425H35.9626C36.0586 14.5425 36.1477 14.491 36.1959 14.4082L42.1012 4.23066C42.2057 4.05109 42.0755 3.82588 41.8683 3.82588H40.5557C40.46 3.82588 40.3706 3.87703 40.3228 3.96019L34.4174 14.1378C34.3133 14.3166 34.4428 14.5425 34.6504 14.5425Z" fill="#002F3E" stroke="white" stroke-width="0.2"/>
<path id="Vector_4" d="M35.4828 8.57723C36.6739 8.57723 37.8802 7.72904 37.8802 6.10735C37.8802 4.49561 36.6732 3.6522 35.4813 3.6522C34.2894 3.6522 33.0835 4.49561 33.0835 6.10735C33.0832 7.72904 34.2901 8.57723 35.4828 8.57723ZM35.4817 5.02071C36.0189 5.02071 36.2912 5.38648 36.2912 6.10735C36.2912 6.51876 36.186 7.20835 35.4817 7.20835C34.7902 7.20835 34.6868 6.51839 34.6868 6.10735C34.6868 5.38648 34.9543 5.02071 35.4817 5.02071Z" fill="#002F3E" stroke="white" stroke-width="0.2"/>
<path id="Vector_5" d="M38.6533 12.2603C38.6533 13.4813 39.482 14.7173 41.0662 14.7173C42.6407 14.7173 43.4643 13.4817 43.4643 12.2607C43.4643 11.0401 42.6404 9.8037 41.0662 9.8037C39.482 9.8037 38.6533 11.0397 38.6533 12.2603ZM41.861 12.2607C41.861 12.6611 41.7558 13.3326 41.0518 13.3326C40.3475 13.3326 40.2422 12.6611 40.2422 12.2607C40.2422 11.5395 40.5146 11.1741 41.0518 11.1741C41.5887 11.1741 41.861 11.5395 41.861 12.2607Z" fill="#002F3E" stroke="white" stroke-width="0.2"/>
<path id="Vector_6" d="M38.2739 29.6315C34.7918 29.6315 31.7563 31.5792 30.1994 34.4421L23.012 30.0606C24.0832 28.2567 24.7007 26.1534 24.7007 23.908C24.7007 21.7185 24.1126 19.6652 23.0908 17.8922L30.1994 13.5582C31.7563 16.4211 34.7918 18.3688 38.2739 18.3688C43.3381 18.3688 47.4583 14.2489 47.4583 9.18439C47.4583 4.11989 43.3381 0 38.2739 0C32.0109 0 27.5319 6.18941 29.5885 12.165L22.2599 16.633C20.0509 13.7109 16.5485 11.8184 12.6115 11.8184C5.94515 11.8184 0.521881 17.2417 0.521881 23.9076C0.521881 30.5739 5.94515 35.9972 12.6115 35.9972C16.4914 35.9972 19.9479 34.1576 22.1616 31.3069L29.5885 35.8349C29.2666 36.7707 29.0896 37.7723 29.0896 38.8155C29.0896 43.88 33.2094 47.9999 38.2739 47.9999C43.3381 47.9999 47.4583 43.88 47.4583 38.8155C47.4583 33.7518 43.3381 29.6315 38.2739 29.6315ZM38.2739 1.50761C42.5068 1.50761 45.9511 4.95152 45.9511 9.18476C45.9511 13.418 42.5072 16.8619 38.2739 16.8619C34.0407 16.8619 30.5968 13.418 30.5968 9.18476C30.5968 4.95152 34.0407 1.50761 38.2739 1.50761ZM12.6115 34.4899C6.77605 34.4899 2.02912 29.743 2.02912 23.908C2.02912 18.0729 6.77605 13.3256 12.6115 13.3256C18.4461 13.3256 23.1934 18.0729 23.1934 23.908C23.1934 29.743 18.4461 34.4899 12.6115 34.4899ZM38.2739 46.493C34.0407 46.493 30.5968 43.0491 30.5968 38.8159C30.5968 34.583 34.0407 31.1387 38.2739 31.1387C42.5068 31.1387 45.9511 34.5827 45.9511 38.8159C45.9511 43.0491 42.5072 46.493 38.2739 46.493Z" fill="#002F3E" stroke="white" stroke-width="0.2"/>
<path id="Vector_7" d="M41.8683 33.4566H40.5557C40.4601 33.4566 40.371 33.5082 40.3228 33.591L34.4175 43.7685C34.3134 43.9477 34.4432 44.1737 34.6504 44.1737H35.9626C36.0587 44.1737 36.1481 44.1222 36.1959 44.039L42.1013 33.8614C42.2058 33.6822 42.0755 33.4566 41.8683 33.4566Z" fill="#002F3E" stroke="white" stroke-width="0.2"/>
<path id="Vector_8" d="M37.8802 35.7385C37.8802 34.1267 36.6732 33.2833 35.4809 33.2833C34.2894 33.2833 33.0832 34.1267 33.0832 35.7385C33.0832 37.3601 34.2901 38.2087 35.4828 38.2087C36.6739 38.2087 37.8802 37.3601 37.8802 35.7385ZM34.6868 35.7385C34.6868 35.0176 34.954 34.6522 35.4813 34.6522C36.0185 34.6522 36.2909 35.0176 36.2909 35.7385C36.2909 36.1499 36.186 36.8395 35.4813 36.8395C34.7899 36.8395 34.6868 36.1495 34.6868 35.7385Z" fill="#002F3E" stroke="white" stroke-width="0.2"/>
<path id="Vector_9" d="M41.0662 39.4352C39.482 39.4352 38.6533 40.6708 38.6533 41.8918C38.6533 43.1124 39.482 44.3488 41.0662 44.3488C42.6407 44.3488 43.4643 43.1127 43.4643 41.8921C43.4647 40.6708 42.6407 39.4352 41.0662 39.4352ZM41.0518 42.9637C40.3475 42.9637 40.2422 42.2921 40.2422 41.8918C40.2422 41.1709 40.5146 40.8051 41.0518 40.8051C41.5887 40.8051 41.861 41.1709 41.861 41.8918C41.861 42.2921 41.7558 42.9637 41.0518 42.9637Z" fill="#002F3E" stroke="white" stroke-width="0.2"/>
</g>
</g>
<defs>
<clipPath id="clip0_4020_7165">
<rect width="48" height="48" fill="white"/>
</clipPath>
</defs>
</svg>
