<svg width="42" height="48" viewBox="0 0 42 48" fill="none" xmlns="http://www.w3.org/2000/svg">
<g id="Group">
<path id="Vector" d="M28.7009 25.9944L28.5235 25.9594L28.4708 26.1324C28.0726 27.44 27.2979 28.603 26.2424 29.4779L26.1023 29.594L26.2046 29.7444L32.1159 38.4323L32.2069 38.5661L32.3568 38.505C34.0625 37.8087 36.0173 38.1339 37.4024 39.3439C39.4163 41.1032 39.6154 44.1533 37.8472 46.1569C36.0786 48.1611 33.0113 48.3595 30.9966 46.5996C28.9826 44.8403 28.7835 41.7902 30.5517 39.7865L30.6545 39.6701L30.5671 39.5417L24.545 30.6907L24.4554 30.559L24.3069 30.6169C22.5687 31.2948 20.63 31.2523 18.9234 30.4991L18.7741 30.4332L18.6796 30.5662L13.642 37.655L13.5548 37.7778L13.6487 37.8955C15.0977 39.7123 15.3023 42.2187 14.1674 44.2442C12.6192 47.0071 9.11198 47.9989 6.33387 46.4579C3.55635 44.9173 2.56092 41.429 4.10877 38.6667C5.65694 35.9039 9.16414 34.912 11.9423 36.453L12.0987 36.5397L12.2023 36.3939L17.0706 29.544L17.1737 29.3989L17.0415 29.2797C14.7831 27.2422 14.1114 23.9846 15.3802 21.2273L15.4467 21.0828L15.3208 20.9855L7.19368 14.7061L7.07718 14.6161L6.95662 14.7006C5.7008 15.5806 4.0675 15.7251 2.67533 15.079C0.529669 14.0832 -0.397466 11.5464 0.602721 9.41295C1.60318 7.27906 4.15375 6.35493 6.30005 7.35097C8.4457 8.34677 9.37284 10.8836 8.37265 13.017L8.3046 13.1622L8.43145 13.2602L16.3645 19.3897L16.5086 19.501L16.6329 19.3679C18.831 17.0149 22.363 16.4646 25.1792 18.0371L25.3357 18.1245L25.4397 17.9784L31.4934 9.46983L31.5879 9.33707L31.477 9.21772C30.0247 7.65524 29.637 5.3874 30.4879 3.43531L30.3046 3.35539L30.4879 3.43531C31.6739 0.714488 34.8535 -0.535699 37.5897 0.644959C40.3255 1.82538 41.5802 4.98813 40.3945 7.70843C39.2085 10.4293 36.029 11.6795 33.2926 10.4988L33.1442 10.4347L33.0504 10.5665L26.924 19.177L26.8301 19.3089L26.9396 19.4282C28.0686 20.658 28.716 22.2502 28.7639 23.9147L28.7685 24.0742L28.9251 24.1052L33.4699 25.0025L33.6198 25.0321L33.6878 24.8953C34.366 23.5297 35.7266 22.6286 37.2555 22.5335C39.6142 22.3868 41.6442 24.17 41.7915 26.5143C41.9388 28.8585 40.1482 30.8793 37.7896 31.026C35.4309 31.1728 33.401 29.3896 33.2536 27.0453L33.244 26.8915L33.0928 26.8616L28.7009 25.9944ZM37.5204 24.4217H37.5203C36.2141 24.4227 35.1537 25.4763 35.1525 26.7784V26.7786C35.1525 28.0812 36.2137 29.1354 37.5204 29.1354C38.8272 29.1354 39.8883 28.0812 39.8883 26.7786C39.8883 25.4759 38.8272 24.4217 37.5204 24.4217ZM35.4261 2.12357L35.4259 2.12357C33.5084 2.12564 31.9528 3.67189 31.9505 5.58219V5.58243C31.9505 7.49363 33.5074 9.04118 35.4258 9.0413C37.3443 9.04142 38.9013 7.49374 38.9014 5.58256C38.9016 3.67135 37.3445 2.12369 35.4261 2.12357ZM4.49553 13.5816H4.49577C5.80266 13.5816 6.86365 12.5273 6.86365 11.2247C6.86365 9.92212 5.80254 8.86785 4.49577 8.86785C3.18899 8.86785 2.12788 9.92212 2.12788 11.2247L2.12788 11.225C2.1294 12.5268 3.18952 13.5801 4.49553 13.5816ZM9.15306 45.2572H9.15328C11.2685 45.2549 12.9844 43.5493 12.9867 41.4424V41.4421C12.9867 39.3343 11.2694 37.6272 9.15331 37.6271C7.03703 37.627 5.31981 39.334 5.31969 41.442C5.31957 43.55 7.0368 45.2571 9.15306 45.2572ZM34.1988 40.0404H34.1986C32.5681 40.0404 31.2444 41.3558 31.2444 42.9806C31.2444 44.6054 32.5679 45.9208 34.1986 45.9208C35.8292 45.9208 37.1527 44.6054 37.1527 42.9806V42.9803C37.1509 41.3564 35.8285 40.0422 34.1988 40.0404ZM21.7568 29.2002H21.757C24.5747 29.2002 26.8607 26.9273 26.8607 24.1214C26.8607 21.3155 24.5747 19.0426 21.757 19.0426C18.9393 19.0426 16.6533 21.3155 16.6533 24.1214V24.1216C16.6564 26.9261 18.9405 29.1971 21.7568 29.2002Z" fill="#002F3E" stroke="white" stroke-width="0.4"/>
</g>
</svg>
