<svg width="48" height="48" viewBox="0 0 48 48" fill="none" xmlns="http://www.w3.org/2000/svg">
<g id="share (5) 1" clip-path="url(#clip0_4020_7138)">
<g id="Page 1">
<g id="038   Share Mobile">
<path id="Shape" d="M28.3279 16.1658L36.1047 11.1297C38.2637 13.7135 42.06 14.1722 44.7723 12.1771C47.4847 10.182 48.1773 6.42129 46.3537 3.59077C44.5301 0.760255 40.8195 -0.16358 37.8816 1.48149C34.9437 3.12656 33.7922 6.77299 35.2525 9.80695L28.3279 14.2922V3.93443C28.3279 2.19609 26.9187 0.786888 25.1803 0.786888H3.14754C1.4092 0.786888 0 2.19609 0 3.93443V44.8525C0 46.5908 1.4092 48 3.14754 48H25.1803C26.9187 48 28.3279 46.5908 28.3279 44.8525V34.4963L35.2525 38.9815C33.8205 41.9731 34.9605 45.5624 37.8563 47.1794C40.7521 48.7963 44.4059 47.8837 46.2014 45.0952C47.9969 42.3066 47.3155 38.6027 44.6451 36.6357C41.9748 34.6687 38.2354 35.1163 36.1047 37.658L28.3279 32.6211V16.1658ZM40.918 2.36066C43.5255 2.36066 45.6393 4.47446 45.6393 7.08197C45.6393 9.68948 43.5255 11.8033 40.918 11.8033C38.3105 11.8033 36.1967 9.68948 36.1967 7.08197C36.1993 4.47554 38.3116 2.36326 40.918 2.36066ZM40.918 36.9836C43.5255 36.9836 45.6393 39.0974 45.6393 41.7049C45.6393 44.3124 43.5255 46.4262 40.918 46.4262C38.3105 46.4262 36.1967 44.3124 36.1967 41.7049C36.1993 39.0985 38.3116 36.9862 40.918 36.9836ZM26.7541 31.6021L19.8295 27.1169C20.6683 25.397 20.6683 23.3867 19.8295 21.6669L26.7541 17.1816V31.6021ZM18.8852 24.3934C18.8852 27.001 16.7714 29.1148 14.1639 29.1148C11.5564 29.1148 9.44262 27.001 9.44262 24.3934C9.44262 21.7859 11.5564 19.6721 14.1639 19.6721C16.7704 19.6747 18.8826 21.787 18.8852 24.3934ZM20.2159 2.36066L19.2063 3.43712C18.909 3.75422 18.4937 3.93422 18.059 3.93443H10.2689C9.834 3.93387 9.41864 3.75395 9.12079 3.43712L8.112 2.36066H20.2159ZM25.1803 46.4262H3.14754C2.27837 46.4262 1.57377 45.7216 1.57377 44.8525V43.6281C2.05011 43.9113 2.59337 44.0623 3.14754 44.0656H25.1803C25.7345 44.0623 26.2778 43.9113 26.7541 43.6281V44.8525C26.7541 45.7216 26.0495 46.4262 25.1803 46.4262ZM26.7541 40.918C26.7541 41.7872 26.0495 42.4918 25.1803 42.4918H3.14754C2.27837 42.4918 1.57377 41.7872 1.57377 40.918V3.93443C1.57377 3.06526 2.27837 2.36066 3.14754 2.36066H5.95436L7.97272 4.51358C8.5687 5.14685 9.39924 5.50662 10.2689 5.5082H18.059C18.9287 5.50718 19.7595 5.14732 20.3551 4.51358L22.3735 2.36066H25.1803C26.0495 2.36066 26.7541 3.06526 26.7541 3.93443V15.3096L18.9773 20.3457C17.2756 18.3196 14.4886 17.5738 12.0024 18.4793C9.51627 19.3848 7.8617 21.7483 7.8617 24.3942C7.8617 27.0402 9.51627 29.4037 12.0024 30.3092C14.4886 31.2147 17.2756 30.4689 18.9773 28.4428L26.7541 33.4773V40.918Z" fill="#002F3E"/>
<path id="Shape_2" d="M14.164 21.2459C12.4256 21.2459 11.0164 22.6551 11.0164 24.3935C11.0164 24.828 11.3687 25.1804 11.8033 25.1804C12.2379 25.1804 12.5902 24.828 12.5902 24.3935C12.5902 23.5243 13.2948 22.8197 14.164 22.8197C14.5985 22.8197 14.9508 22.4674 14.9508 22.0328C14.9508 21.5982 14.5985 21.2459 14.164 21.2459Z" fill="#002F3E"/>
<path id="Shape_3" d="M38.5574 7.86885C38.992 7.86885 39.3443 7.51655 39.3443 7.08197C39.3443 6.2128 40.0489 5.5082 40.9181 5.5082C41.3526 5.5082 41.7049 5.1559 41.7049 4.72131C41.7049 4.28673 41.3526 3.93443 40.9181 3.93443C39.1797 3.93443 37.7705 5.34363 37.7705 7.08197C37.7705 7.29066 37.8534 7.49081 38.001 7.63838C38.1486 7.78595 38.3487 7.86885 38.5574 7.86885Z" fill="#002F3E"/>
<path id="Shape_4" d="M38.5574 42.4918C38.992 42.4918 39.3443 42.1395 39.3443 41.7049C39.3443 40.8357 40.0489 40.1311 40.9181 40.1311C41.3526 40.1311 41.7049 39.7788 41.7049 39.3443C41.7049 38.9097 41.3526 38.5574 40.9181 38.5574C39.1797 38.5574 37.7705 39.9666 37.7705 41.7049C37.7705 42.1395 38.1228 42.4918 38.5574 42.4918Z" fill="#002F3E"/>
<path id="Shape_5" d="M3.93444 10.2295C4.14312 10.2295 4.34324 10.1465 4.49077 9.99895L6.06454 8.42518C6.36275 8.11642 6.35848 7.62564 6.05495 7.32211C5.75143 7.01858 5.26064 7.01432 4.95189 7.31253L3.37812 8.8863C3.15314 9.11134 3.08585 9.44974 3.20762 9.74373C3.32938 10.0377 3.61623 10.2294 3.93444 10.2295Z" fill="#002F3E"/>
<path id="Shape_6" d="M3.93445 14.9508C4.14312 14.9508 4.34324 14.8678 4.49077 14.7203L10.7859 8.42518C11.0841 8.11642 11.0798 7.62564 10.7763 7.32211C10.4727 7.01858 9.98196 7.01432 9.6732 7.31252L3.37812 13.6076C3.15314 13.8326 3.08585 14.171 3.20762 14.465C3.32938 14.759 3.61623 14.9507 3.93445 14.9508Z" fill="#002F3E"/>
<path id="Shape_7" d="M15.5071 7.31253C15.1998 7.00534 14.7017 7.00534 14.3945 7.31253L3.37806 18.3289C3.17351 18.5265 3.09147 18.8191 3.16348 19.0942C3.23549 19.3693 3.45035 19.5841 3.72547 19.6562C4.00059 19.7282 4.29315 19.6461 4.49072 19.4416L15.5071 8.42518C15.8143 8.1179 15.8143 7.61981 15.5071 7.31253Z" fill="#002F3E"/>
</g>
</g>
</g>
<defs>
<clipPath id="clip0_4020_7138">
<rect width="48" height="48" fill="white"/>
</clipPath>
</defs>
</svg>
